# xmcd CD database file
#
# Track frame offsets:
#	150
#	25417
#	41318
#	51554
#	66116
#	95724
#	108635
#	127530
#	144333
#
# Disc length: 2066 seconds
#
# Revision: 0
# Processed by: cddbd v1.5.1PL0 Copyright (c) Steve Scherf et al.
# Submitted via: CDex 1.40Release
#
DISCID=79081009
DTITLE=Talticpac - Mayan flutes...Now
DYEAR=1900
DGENRE=Native American
TTITLE0=Presagios
TTITLE1=Ahora
TTITLE2=Ne ujti
TTITLE3=Metzi
TTITLE4=Tumijmituk
TTITLE5=Umbral
TTITLE6=Hace un rato
TTITLE7=La gente que no nació
TTITLE8=Manuguan
EXTD=ID3G: 64
EXTT0=
EXTT1=
EXTT2=
EXTT3=
EXTT4=
EXTT5=
EXTT6=
EXTT7=
EXTT8=
PLAYORDER=
